<?xml version="1.0" standalone="no"?>
<!DOCTYPE svg PUBLIC "-//W3C//DTD SVG 20010904//EN"
 "http://www.w3.org/TR/2001/REC-SVG-20010904/DTD/svg10.dtd">
<svg version="1.0" xmlns="http://www.w3.org/2000/svg"
 width="529.000000pt" height="336.000000pt" viewBox="0 0 529.000000 336.000000"
 preserveAspectRatio="xMidYMid meet">

<g transform="translate(0.000000,336.000000) scale(0.100000,-0.100000)"
fill="#000000" stroke="none">
<path d="M613 3322 c-121 -43 -215 -147 -256 -283 -4 -11 -22 -18 -57 -22
-117 -14 -234 -98 -270 -193 -72 -193 63 -371 323 -428 21 -5 27 -12 27 -34 0
-46 27 -143 44 -160 14 -15 18 -14 43 6 212 166 460 245 717 227 186 -12 181
-13 184 11 2 11 -8 55 -22 98 l-24 77 63 64 c87 89 119 156 123 261 3 65 0 91
-16 126 -48 110 -135 163 -267 162 -50 0 -100 -7 -133 -18 l-53 -18 -41 37
c-22 21 -70 51 -106 68 -85 40 -199 48 -279 19z m215 -78 c101 -33 200 -137
240 -254 19 -53 20 -54 27 -26 5 16 3 58 -4 94 -14 76 -14 76 68 93 102 21
195 -9 241 -77 38 -57 40 -153 6 -226 -25 -52 -92 -125 -161 -174 l-29 -20 26
-65 26 -64 -157 -6 c-248 -10 -401 -55 -619 -185 l-27 -16 25 21 c39 33 196
111 295 147 108 40 91 44 -31 8 -105 -30 -176 -61 -239 -104 -26 -18 -49 -30
-52 -27 -15 16 193 125 327 173 36 13 59 23 51 24 -28 0 -147 -33 -200 -56
-30 -14 -56 -22 -58 -20 -6 6 91 51 187 87 94 35 70 37 -44 4 -86 -25 -186
-70 -238 -107 -16 -11 -28 -16 -28 -11 0 16 184 111 300 154 89 33 75 37 -30
8 -89 -24 -204 -76 -264 -119 -40 -29 -48 -31 -92 -24 -160 23 -284 132 -284
250 0 60 37 124 93 161 54 36 97 51 178 59 l55 6 24 77 c20 66 31 84 85 138
46 45 74 65 111 76 65 20 130 21 192 1z m-272 -777 c-10 -7 -34 -22 -53 -35
-20 -13 -37 -21 -40 -18 -5 4 97 66 107 65 3 0 -3 -6 -14 -12z"/>
<path d="M2370 3256 c265 -97 490 -196 490 -214 0 -6 2 -17 5 -25 9 -21 -91
-11 -188 19 -169 52 -548 136 -605 133 -9 0 44 -17 118 -38 174 -48 450 -140
450 -150 0 -16 -75 -49 -95 -41 -61 23 -482 91 -553 89 -15 0 38 -15 118 -33
177 -41 373 -93 415 -110 30 -13 87 -76 68 -76 -56 0 -440 44 -527 61 -78 15
-86 9 -16 -11 120 -35 324 -78 475 -100 87 -13 166 -30 187 -41 21 -11 44 -19
53 -19 10 0 15 -7 13 -17 -3 -16 -15 -18 -98 -15 -170 4 -331 17 -585 47 -61
8 -32 -2 94 -30 157 -35 324 -62 466 -76 85 -9 128 -18 147 -31 49 -34 113
-58 156 -58 29 0 42 -4 42 -14 0 -18 86 -54 168 -70 37 -8 92 -25 122 -40 46
-22 68 -26 135 -25 62 1 91 -4 128 -21 27 -12 83 -25 125 -30 42 -4 95 -15
117 -23 53 -19 347 -33 401 -18 58 15 130 65 161 110 33 47 35 47 142 -16 285
-168 474 -382 557 -628 38 -116 45 -306 15 -425 -41 -163 -133 -316 -279 -463
-777 -788 -2725 -955 -3912 -336 -128 67 -286 170 -358 233 -78 69 -90 73 -32
12 203 -213 545 -409 933 -535 246 -80 491 -132 798 -168 207 -25 737 -24 939
0 585 72 1136 257 1515 508 124 82 281 231 359 342 65 92 139 253 167 362 32
124 33 342 1 458 -82 300 -295 542 -670 762 -59 34 -106 68 -104 75 5 22 -20
123 -39 162 -29 57 -72 101 -128 132 -69 37 -219 83 -316 97 -44 6 -108 19
-143 30 -34 10 -87 19 -117 19 -29 0 -57 5 -61 11 -3 6 -30 22 -58 35 -40 18
-68 24 -127 24 -44 0 -95 7 -120 16 -24 8 -77 18 -116 21 -63 5 -73 4 -73 -10
0 -14 -4 -14 -32 -3 -53 22 -111 28 -161 16 -44 -9 -56 -8 -140 24 -169 63
-523 167 -562 165 -5 0 55 -24 135 -53z m712 -222 c15 -8 38 -29 52 -46 26
-36 106 -173 106 -184 0 -14 -109 5 -148 25 -73 37 -131 111 -157 198 -5 18
-1 22 22 26 38 6 92 -2 125 -19z m224 -9 c47 -19 79 -69 117 -185 19 -58 33
-106 32 -108 -1 -1 -27 7 -58 18 -109 41 -177 128 -193 249 l-7 52 39 -7 c22
-3 53 -12 70 -19z m228 -29 c44 -18 86 -72 115 -148 14 -35 36 -85 49 -112
l24 -49 -52 6 c-128 15 -205 107 -236 280 l-6 37 36 0 c20 0 51 -6 70 -14z
m-602 -112 c39 -27 73 -55 75 -60 6 -19 -110 -64 -164 -64 -64 0 -142 39 -183
90 l-31 39 48 26 c40 21 59 25 115 22 63 -2 73 -6 140 -53z m832 45 c65 -16
100 -59 151 -185 25 -60 45 -110 45 -111 0 -9 -53 -1 -95 14 -91 31 -161 129
-181 253 -6 36 -5 40 15 40 12 0 42 -5 65 -11z m223 -44 c68 -20 128 -87 165
-182 41 -106 44 -123 22 -123 -69 0 -150 53 -183 119 -28 55 -70 201 -58 201
2 0 26 -7 54 -15z m250 -86 c107 -66 145 -210 88 -326 -44 -87 -121 -132 -230
-133 l-60 0 40 26 c115 77 160 146 159 249 0 72 -17 121 -64 193 l-22 32 28
-10 c16 -6 43 -20 61 -31z m-1033 -48 l28 -11 -83 -61 c-107 -78 -141 -93
-199 -86 -42 5 -110 34 -110 47 0 14 80 81 125 105 45 23 59 25 130 22 44 -2
93 -10 109 -16z m230 -37 c13 -5 0 -24 -56 -87 -99 -109 -117 -119 -199 -114
-90 6 -94 10 -67 59 30 53 99 113 151 132 43 15 143 21 171 10z m227 -55 c19
-7 35 -13 37 -14 5 -4 -135 -136 -177 -167 -44 -32 -99 -44 -153 -34 -63 12
-65 18 -19 84 43 61 103 111 156 130 41 14 115 15 156 1z m277 -63 c12 -7
-120 -141 -176 -178 -40 -26 -88 -31 -148 -13 l-54 16 29 43 c38 54 93 103
145 128 32 15 58 18 117 15 41 -2 81 -7 87 -11z m203 -38 c22 -6 39 -14 39
-18 0 -4 -33 -39 -74 -78 -80 -77 -140 -111 -197 -112 -47 0 -99 10 -99 20 0
4 37 46 83 92 101 104 154 125 248 96z"/>
<path d="M1035 2389 c-221 -22 -411 -99 -532 -215 -50 -47 -53 -53 -53 -100 0
-60 36 -141 75 -173 36 -28 45 -24 60 25 28 94 81 166 170 229 129 93 300 145
472 145 161 0 212 -37 201 -149 -13 -139 -173 -331 -275 -331 -21 0 -20 5 24
135 25 75 42 142 39 151 -8 20 -67 44 -110 44 -45 0 -54 -14 -99 -155 -75
-234 -127 -465 -127 -561 0 -66 20 -84 96 -84 l52 0 11 79 c10 67 53 262 65
297 6 16 144 -31 173 -58 36 -34 31 -97 -15 -194 -69 -141 -177 -222 -310
-232 -89 -6 -167 11 -235 52 -40 24 -58 31 -66 23 -19 -19 -12 -33 30 -72 53
-47 142 -90 224 -105 162 -31 400 73 490 214 95 148 80 310 -34 362 -22 11
-41 21 -41 24 0 3 20 16 45 29 149 79 247 288 203 435 -14 47 -76 113 -129
138 -95 46 -248 63 -404 47z"/>
<path d="M2475 2281 c-22 -9 -82 -183 -159 -461 -37 -131 -46 -158 -102 -277
-53 -116 -128 -223 -155 -223 -40 0 -3 208 88 502 41 133 39 140 -30 159 -51
13 -85 5 -99 -26 l-11 -24 -27 21 c-15 11 -48 23 -73 25 -59 7 -136 -28 -195
-88 -80 -81 -151 -263 -152 -387 0 -141 81 -226 183 -193 32 11 105 80 134
127 10 17 12 14 12 -24 1 -53 23 -107 49 -121 12 -6 48 -11 81 -11 53 0 64 4
96 31 19 17 53 61 75 98 l41 66 -7 -67 c-6 -63 -5 -68 20 -93 23 -23 33 -26
79 -23 50 3 52 4 55 33 1 17 10 70 19 118 14 77 22 97 61 149 76 101 91 92
116 -65 21 -139 38 -181 81 -201 42 -20 117 -21 154 -1 37 18 78 71 127 160
l39 70 6 -46 c18 -120 96 -179 237 -179 86 0 135 24 206 101 86 92 157 222
237 434 l38 100 63 12 c35 6 64 10 66 8 2 -2 -1 -12 -6 -22 -19 -36 -91 -315
-103 -398 -14 -97 -1 -165 35 -188 30 -20 104 -28 150 -18 51 12 77 40 126
131 l39 75 1 -51 c0 -107 35 -144 134 -144 66 0 99 24 159 115 21 33 37 51 34
40 -3 -11 -11 -40 -17 -65 -27 -109 -24 -105 -98 -119 -140 -27 -218 -85 -229
-170 -17 -125 61 -197 185 -170 96 20 165 92 228 237 26 60 39 78 76 101 91
58 161 161 243 355 50 119 54 139 28 134 -12 -2 -35 -42 -68 -119 -71 -164
-109 -229 -167 -288 -28 -28 -53 -49 -55 -47 -2 2 23 104 57 227 34 123 74
272 90 331 16 59 27 114 24 121 -12 33 -129 52 -152 25 -6 -7 -29 -78 -52
-158 -47 -165 -97 -298 -145 -385 -39 -70 -98 -131 -115 -120 -27 17 7 192 91
472 21 72 39 137 39 142 0 19 -63 51 -101 51 -22 0 -42 -7 -51 -17 -9 -10 -35
-79 -58 -153 -90 -291 -197 -510 -250 -510 -53 0 -34 149 55 449 14 46 25 94
25 108 0 36 -29 80 -62 94 -28 11 -112 8 -167 -8 -22 -6 -23 -4 -17 18 19 67
19 87 -2 93 -11 4 -32 4 -45 0 -41 -10 -61 -93 -36 -147 24 -54 -146 -427
-246 -539 -58 -64 -98 -88 -148 -88 -76 0 -117 59 -117 168 l0 60 43 -5 c54
-6 87 10 148 72 63 64 102 144 107 222 5 74 -11 107 -63 129 -78 32 -155 12
-233 -61 -63 -58 -105 -129 -142 -235 -57 -165 -195 -390 -232 -378 -15 5 -31
68 -47 193 -21 158 -46 204 -106 193 -14 -3 -25 -2 -25 3 0 9 125 123 185 168
22 17 57 36 78 41 71 20 20 68 -74 69 -68 2 -164 -86 -274 -249 -47 -69 -45
-63 42 215 82 260 82 259 52 278 -30 19 -98 29 -124 18z m901 -354 c8 -21 -32
-117 -72 -170 -38 -53 -87 -87 -122 -87 -28 0 -26 14 20 109 52 108 155 196
174 148z m-1438 -69 c7 -7 12 -37 12 -67 0 -69 -46 -185 -112 -288 -70 -107
-115 -110 -111 -7 4 111 75 287 138 343 39 34 54 38 73 19z m2392 -564 c0 -21
-60 -125 -92 -160 -79 -86 -161 -61 -138 41 11 50 46 83 111 106 52 18 119 25
119 13z"/>
<path d="M2238 1149 c-10 -5 -18 -21 -18 -35 0 -37 -67 -186 -92 -205 -30 -24
-14 -39 42 -39 52 0 69 12 50 35 -17 21 -3 35 33 35 42 0 68 -16 48 -29 -8 -5
-11 -16 -8 -25 5 -13 21 -16 75 -16 37 0 73 5 79 11 8 8 13 8 17 0 8 -13 115
-15 135 -2 11 7 10 13 -4 35 -14 21 -15 30 -6 39 9 9 21 1 52 -36 38 -44 44
-47 88 -47 26 0 53 6 60 13 11 10 14 10 18 0 3 -10 38 -13 127 -13 122 0 123
0 134 25 29 63 5 91 -38 45 -23 -25 -36 -31 -62 -28 -30 3 -33 6 -36 41 -3 29
0 37 13 37 9 0 19 -9 22 -20 12 -44 43 -5 43 53 0 49 -22 65 -44 32 -9 -14
-21 -25 -27 -25 -15 0 -22 27 -15 55 5 21 12 25 41 25 22 0 41 -8 54 -21 11
-12 24 -18 30 -14 15 9 14 62 -1 71 -17 11 -231 4 -243 -7 -7 -7 -5 -14 6 -22
32 -24 36 -201 4 -213 -16 -7 -52 24 -112 94 -45 52 -45 53 -27 74 11 11 34
27 52 35 52 22 35 38 -39 38 -63 0 -64 -1 -65 -27 -1 -28 -19 -58 -35 -58 -13
0 -11 34 2 47 7 7 9 19 6 27 -5 12 -21 16 -66 16 -33 0 -63 -5 -66 -11 -4 -5
1 -26 10 -46 13 -26 16 -54 13 -104 -7 -126 -39 -117 -113 32 -64 127 -93 154
-137 128z m40 -134 c11 -24 10 -25 -18 -25 -33 0 -35 3 -20 31 14 26 25 24 38
-6z"/>
<path d="M1896 1132 c-44 -30 -66 -71 -66 -122 0 -56 27 -101 73 -123 69 -33
180 -11 193 37 9 37 -2 47 -34 30 -41 -21 -71 -17 -103 15 -56 57 -26 149 39
122 16 -7 34 -23 40 -37 19 -41 72 -25 72 22 0 46 -29 65 -110 70 -63 5 -79 2
-104 -14z"/>
<path d="M3129 1121 c-54 -55 -35 -113 51 -150 57 -25 67 -51 19 -51 -21 0
-39 9 -59 32 -37 40 -59 28 -44 -24 12 -41 44 -58 112 -58 87 0 132 34 132 99
0 37 -29 66 -84 84 -23 8 -42 21 -44 30 -5 24 34 22 65 -3 48 -38 77 -16 49
38 -15 29 -18 30 -91 31 -72 1 -78 0 -106 -28z"/>
<path d="M1360 740 c-11 -11 -20 -33 -20 -48 0 -35 -64 -170 -85 -178 -8 -3
-15 -15 -15 -25 0 -16 8 -19 54 -19 60 0 80 15 50 37 -16 12 -17 15 -4 23 20
13 57 12 81 -1 20 -10 20 -11 2 -24 -32 -24 -3 -36 78 -33 61 2 74 6 77 21 2
10 -3 17 -11 17 -8 0 -26 28 -42 63 -41 95 -86 164 -112 176 -31 14 -30 14
-53 -9z m38 -112 c20 -20 14 -38 -13 -38 -26 0 -29 7 -19 34 7 19 16 20 32 4z"/>
<path d="M3103 752 c-94 -2 -113 -5 -113 -18 0 -9 7 -22 15 -30 21 -21 21
-162 0 -190 -31 -40 -22 -44 110 -44 113 0 125 2 135 19 12 24 13 68 1 75 -5
4 -23 -8 -40 -25 -24 -24 -38 -30 -63 -27 -30 3 -33 6 -36 41 -3 31 0 37 16
37 12 0 22 -9 25 -22 10 -37 37 -3 37 47 0 55 -25 80 -40 40 -14 -36 -35 -26
-35 16 0 30 3 34 29 37 18 2 40 -4 57 -17 34 -25 35 -25 43 -5 8 21 -3 62 -17
66 -7 2 -63 2 -124 0z"/>
<path d="M3403 749 c-15 -5 -23 -20 -28 -48 -8 -48 -65 -170 -88 -190 -33 -27
-20 -41 37 -41 60 0 80 15 50 37 -16 12 -17 15 -4 23 20 13 42 12 76 0 25 -10
26 -12 9 -24 -10 -7 -15 -18 -11 -24 10 -16 148 -16 164 0 9 9 12 9 12 0 0
-19 203 -16 241 3 63 33 90 136 54 205 -25 48 -61 60 -179 60 -107 0 -137 -10
-103 -35 24 -17 24 -176 1 -199 -26 -27 -48 -3 -103 108 -54 112 -84 142 -128
125z m394 -54 c24 -17 40 -87 29 -129 -8 -32 -32 -56 -57 -56 -17 0 -19 8 -19
100 0 107 4 115 47 85z m-369 -67 c20 -20 14 -38 -13 -38 -26 0 -29 7 -19 34
7 19 16 20 32 4z"/>
<path d="M1591 737 c-8 -11 -6 -18 9 -32 17 -15 20 -31 20 -100 0 -60 -4 -86
-14 -95 -27 -22 -7 -40 45 -40 56 0 73 18 45 49 -18 20 -22 66 -6 76 6 4 43
-23 84 -59 40 -36 80 -66 88 -66 13 0 16 21 20 111 4 93 8 114 23 125 10 7 15
20 12 29 -9 22 -105 21 -114 -1 -4 -10 0 -20 10 -26 17 -9 24 -68 9 -68 -5 0
-37 25 -72 55 -55 48 -69 55 -106 55 -23 0 -47 -6 -53 -13z"/>
<path d="M1940 730 c0 -11 5 -20 10 -20 6 0 10 -38 10 -95 0 -77 -3 -96 -17
-103 -10 -6 -14 -16 -10 -26 9 -24 194 -23 244 1 47 22 78 88 69 146 -16 95
-52 117 -198 117 -101 0 -108 -1 -108 -20z m180 -47 c18 -24 21 -38 18 -87 -3
-43 -10 -62 -24 -73 -39 -28 -49 -14 -52 76 -2 47 -1 90 2 98 9 21 33 15 56
-14z"/>
<path d="M2373 735 c-3 -9 2 -22 12 -29 16 -11 17 -23 11 -97 -4 -46 -11 -88
-16 -93 -6 -6 -10 -18 -10 -28 0 -16 11 -18 106 -18 136 0 173 19 174 87 0 22
-7 38 -23 50 -22 16 -23 19 -9 43 20 34 9 73 -23 88 -14 7 -69 12 -121 12 -76
0 -96 -3 -101 -15z m152 -66 c0 -24 -5 -34 -15 -34 -16 0 -25 37 -16 62 10 26
31 8 31 -28z m13 -115 c2 -22 -2 -33 -13 -38 -25 -9 -35 2 -35 40 0 31 3 35
23 32 17 -2 23 -11 25 -34z"/>
<path d="M2670 740 c-12 -8 -12 -11 3 -28 23 -25 25 -183 2 -202 -27 -23 1
-40 67 -40 46 0 60 4 65 17 4 9 1 19 -5 21 -14 4 -17 82 -3 82 14 0 31 -25 37
-59 9 -45 50 -74 93 -67 46 7 59 21 39 43 -9 10 -20 31 -23 46 -4 16 -18 35
-32 44 l-24 16 21 19 c29 27 26 72 -6 97 -23 18 -41 21 -123 21 -53 0 -103 -4
-111 -10z m154 -53 c13 -20 -3 -52 -25 -52 -8 0 -13 8 -13 18 1 9 2 26 3 38 1
23 19 21 35 -4z"/>
</g>
</svg>
